<?xml version="1.0" encoding="UTF-8" standalone="no"?>
<!-- Created with Inkscape (http://www.inkscape.org/) -->

<svg
   version="1.1"
   id="svg1"
   width="264.57333"
   height="121.89333"
   viewBox="0 0 264.57333 121.89333"
   sodipodi:docname="label_demeter.svg"
   inkscape:version="1.4 (1:1.4+202410161351+e7c3feb100)"
   xmlns:inkscape="http://www.inkscape.org/namespaces/inkscape"
   xmlns:sodipodi="http://sodipodi.sourceforge.net/DTD/sodipodi-0.dtd"
   xmlns="http://www.w3.org/2000/svg"
   xmlns:svg="http://www.w3.org/2000/svg">
  <defs
     id="defs1" />
  <sodipodi:namedview
     id="namedview1"
     pagecolor="#ffffff"
     bordercolor="#111111"
     borderopacity="1"
     inkscape:showpageshadow="0"
     inkscape:pageopacity="0"
     inkscape:pagecheckerboard="1"
     inkscape:deskcolor="#d1d1d1"
     inkscape:zoom="8.8557676"
     inkscape:cx="132.28667"
     inkscape:cy="60.920749"
     inkscape:window-width="2490"
     inkscape:window-height="1376"
     inkscape:window-x="70"
     inkscape:window-y="27"
     inkscape:window-maximized="1"
     inkscape:current-layer="g1">
    <inkscape:page
       x="0"
       y="0"
       inkscape:label="1"
       id="page1"
       width="264.57333"
       height="121.89333"
       margin="0"
       bleed="0" />
  </sodipodi:namedview>
  <g
     id="g1"
     inkscape:groupmode="layer"
     inkscape:label="1">
    <g
       id="group-R5">
      <path
         id="path2"
         d="M 0,914.234 V 26.2109 l 1000.97,143.6481 594.95,27.77 388.33,76.851 V 914.234 H 0"
         style="fill:#f36925;fill-opacity:1;fill-rule:nonzero;stroke:none"
         transform="matrix(0.13333333,0,0,-0.13333333,0,121.89333)" />
      <path
         id="path3"
         d="M 1586.6,248.121 1035.71,215.574 392.535,130.203 65.5234,122.547 V 0 l 357.0116,30.2539 384.387,73.2301 633.538,61.348 476.82,65.742 v 96.02 L 1586.6,248.121"
         style="fill:#116453;fill-opacity:1;fill-rule:nonzero;stroke:none"
         transform="matrix(0.13333333,0,0,-0.13333333,0,121.89333)" />
      <path
         id="path4"
         d="m 1381.04,646.379 v 71.676 c 0,1.832 -1.77,3.996 -4.4,3.41 -14.56,-2.906 -57.85,-16.875 -59.24,-42.731 -0.06,-1.242 -0.17,-22.886 -0.23,-35.847 0,-2.926 -0.67,-7.426 -1.92,-9.235 -1.3,-1.832 -4.37,-1.894 -10.22,-3.285 -20.7,-4.922 -22.8,-21.015 -24.05,-50.91 4.48,0.254 17.95,1.012 23.73,1.809 7.98,1.242 12.63,-4.332 12.63,-12.055 l 0.04,-209.832 c 0,-1.828 2.61,-4.016 5.24,-3.43 14.62,2.906 56.99,9.215 58.36,35.071 0.31,8.25 0.4,136.472 0.33,183.074 -0.02,8.16 -0.65,10.14 3.22,13.969 2.74,2.691 2.38,2.859 9.26,3.703 38.27,4.183 35.72,49.519 35.85,53.582 l -41.78,-4.543 c -3.58,-0.422 -6.82,0.82 -6.82,5.574"
         style="fill:#ffffff;fill-opacity:1;fill-rule:nonzero;stroke:none"
         transform="matrix(0.13333333,0,0,-0.13333333,0,121.89333)" />
      <path
         id="path5"
         d="m 968.512,560.84 c -51.102,-3.828 -65.133,-18.219 -72.098,-26.129 -21.394,13.23 -50.91,13.734 -68.141,11.969 -31.16,-2.336 -61.074,-15.043 -68.039,-22.953 -23.246,17.503 -47.269,4.734 -54.949,5.093 0,0 5.973,-14.16 6.414,-42.836 V 289.871 c 0,0 60.906,2.567 63.242,36.774 v 144.886 c 25.539,7.047 76.997,44.141 76.157,-56.695 V 304.195 c 0,0 63.304,2.821 65.66,37.028 v 143.586 c 30.355,12.453 74.012,43.57 73.945,-56.235 l -0.019,-110.008 c 0,0 62.696,3.555 62.716,36.711 0,0 0.42,136.473 0,141.438 -4.29,41.93 -47.4,66.922 -84.888,64.125"
         style="fill:#ffffff;fill-opacity:1;fill-rule:nonzero;stroke:none"
         transform="matrix(0.13333333,0,0,-0.13333333,0,121.89333)" />
      <path
         id="path6"
         d="m 1779.33,652.77 c -3.18,0.402 -25.29,2.355 -25.29,2.355 -37.65,-3.262 -54.99,-20.387 -60.9,-19.879 -1.41,0.149 -13.51,7.488 -19.42,8.016 -3.47,0.312 -17.67,3.406 -30.88,-0.844 0,0 3.93,-13.988 7.63,-42.938 9.07,-70.898 8.92,-168.828 8.71,-195.484 0.19,-2.187 0.19,-3.324 1.62,-4.648 0.97,-0.946 2.11,-1.621 3.16,-1.41 57.81,10.644 53.18,15.988 53.94,80.914 0,0 -1.98,60.714 0,83.203 2.55,28.992 62.9,10.289 63.68,73.168 0.02,3.535 -0.59,12.836 -2.25,17.547"
         style="fill:#ffffff;fill-opacity:1;fill-rule:nonzero;stroke:none"
         transform="matrix(0.13333333,0,0,-0.13333333,0,121.89333)" />
      <path
         id="path7"
         d="m 564.504,357.492 c -16.324,12.602 -40.477,46.953 -40.285,65.446 0.336,33.472 95.133,65.343 94.289,17.777 -0.336,-20.238 -38.309,-72.981 -54.004,-83.223 m 131.551,-30.844 c -29.453,-7.238 -85.371,0.633 -107.399,13.758 12.961,11.551 98.836,91.453 103.192,145.035 2.797,34.524 -49.735,35.661 -53.203,35.747 -45.758,1.113 -140.512,-9.805 -155.2,-79.399 -11.172,-52.992 36.668,-166.387 129.532,-168.617 32.187,-0.781 67.656,30.379 84.382,49.984 0.254,0.293 0.739,1.055 0.821,1.453 0.211,1.051 -0.149,2.293 -2.125,2.039"
         style="fill:#ffffff;fill-opacity:1;fill-rule:nonzero;stroke:none"
         transform="matrix(0.13333333,0,0,-0.13333333,0,121.89333)" />
      <path
         id="path8"
         d="m 1150.28,424.949 c -16.3,12.602 -40.45,46.957 -40.26,65.449 0.31,33.469 95.11,65.321 94.29,17.754 -0.36,-20.214 -38.35,-72.957 -54.03,-83.203 m 131.55,-30.844 c -29.43,-7.257 -85.37,0.633 -107.4,13.762 12.96,11.547 98.84,91.473 103.2,145.035 2.79,34.5 -49.7,35.657 -53.19,35.743 -45.73,1.113 -140.53,-9.805 -155.21,-79.399 -11.18,-52.992 36.64,-166.387 129.55,-168.617 32.16,-0.801 67.65,30.379 84.36,49.984 0.25,0.297 0.73,1.055 0.8,1.473 0.25,1.031 -0.13,2.273 -2.11,2.019"
         style="fill:#ffffff;fill-opacity:1;fill-rule:nonzero;stroke:none"
         transform="matrix(0.13333333,0,0,-0.13333333,0,121.89333)" />
      <path
         id="path9"
         d="m 1497.1,468.402 c -16.3,12.625 -40.48,46.957 -40.29,65.45 0.36,33.496 95.14,65.343 94.32,17.777 -0.34,-20.238 -38.31,-72.981 -54.03,-83.227 m 131.57,-30.839 c -29.47,-7.239 -85.37,0.632 -107.42,13.757 12.98,11.551 98.82,91.473 103.24,145.035 2.79,34.524 -49.76,35.661 -53.23,35.747 -45.76,1.113 -140.51,-9.805 -155.18,-79.399 -11.21,-52.992 36.61,-166.367 129.51,-168.617 32.17,-0.781 67.66,30.379 84.39,49.984 0.23,0.293 0.71,1.051 0.82,1.453 0.21,1.071 -0.17,2.293 -2.13,2.04"
         style="fill:#ffffff;fill-opacity:1;fill-rule:nonzero;stroke:none"
         transform="matrix(0.13333333,0,0,-0.13333333,0,121.89333)" />
      <path
         id="path10"
         d="m 366.508,305.043 c -28.168,4.289 -78.113,23.625 -99.34,59.199 -14.535,24.363 52.195,61.809 89.957,76.242 12.203,4.649 20.746,7.028 26.57,-9.617 4.758,-21.414 6.629,-34.984 8.817,-57.453 1.894,-19.398 2.691,-36.016 2.441,-49.691 -0.422,-24.825 -16.578,-20.493 -28.445,-18.68 m 105.57,409.52 c -5.765,0 -103.422,-2.059 -120.211,-32.333 -15.043,-27.16 0,-45.57 19.313,-178.382 -52.617,-6.078 -163.95,-39.129 -168.387,-108.68 -3.516,-55.16 80.406,-144.848 171.102,-157.91 13.402,-1.938 54.675,-2.61 70.347,35.238 14.918,24.09 29.731,380.258 31.832,427.742 0.211,3.535 -1.242,14.77 -3.996,14.325"
         style="fill:#ffffff;fill-opacity:1;fill-rule:nonzero;stroke:none"
         transform="matrix(0.13333333,0,0,-0.13333333,0,121.89333)" />
    </g>
  </g>
</svg>
