<?xml version="1.0" encoding="UTF-8" standalone="no"?>
<!-- Created with Inkscape (http://www.inkscape.org/) -->

<svg
   version="1.1"
   id="svg1"
   width="291.84"
   height="405.84"
   viewBox="0 0 291.84 405.84"
   sodipodi:docname="AB_cert.svg"
   inkscape:version="1.4 (1:1.4+202410161351+e7c3feb100)"
   xmlns:inkscape="http://www.inkscape.org/namespaces/inkscape"
   xmlns:sodipodi="http://sodipodi.sourceforge.net/DTD/sodipodi-0.dtd"
   xmlns="http://www.w3.org/2000/svg"
   xmlns:svg="http://www.w3.org/2000/svg">
  <defs
     id="defs1" />
  <sodipodi:namedview
     id="namedview1"
     pagecolor="#ffffff"
     bordercolor="#111111"
     borderopacity="1"
     inkscape:showpageshadow="0"
     inkscape:pageopacity="0"
     inkscape:pagecheckerboard="1"
     inkscape:deskcolor="#d1d1d1"
     inkscape:zoom="2.8853736"
     inkscape:cx="146.0816"
     inkscape:cy="202.92"
     inkscape:window-width="2490"
     inkscape:window-height="1376"
     inkscape:window-x="70"
     inkscape:window-y="27"
     inkscape:window-maximized="1"
     inkscape:current-layer="g1">
    <inkscape:page
       x="0"
       y="0"
       inkscape:label="1"
       id="page1"
       width="291.84"
       height="405.84"
       margin="0"
       bleed="0" />
  </sodipodi:namedview>
  <g
     id="g1"
     inkscape:groupmode="layer"
     inkscape:label="1">
    <path
       id="path1"
       d="M 2188.75,0 V 3043.75 H 0 V 0 h 2188.75"
       style="fill:#ffffff;fill-opacity:1;fill-rule:nonzero;stroke:none"
       transform="matrix(0.13333333,0,0,-0.13333333,0,405.84)" />
    <path
       id="path2"
       d="m 231.426,2690.98 c -0.211,-19.27 -9.192,-41.12 -20.946,-52.27 -9.191,-8.81 -26.675,-17.62 -45.867,-18.4 -34.547,-1.29 -58.675,25.66 -67.0114,65.73 -1.7071,8.85 -2.9883,20.83 -2.9883,33.32 0,12.76 1.0664,25.78 3.6289,36.45 8.7618,35.4 27.3478,63.23 67.6488,63.23 11.086,0 26.652,-1.56 41.808,-14.83 22.446,-18.46 23.516,-42.93 23.727,-52.57 h -30.563 c -0.851,10.68 -8.105,37.5 -39.238,34.63 -14.496,-1.3 -25.801,-14.05 -30.918,-30.2 -2.133,-6.77 -4.262,-19.26 -4.906,-32.8 -0.426,-13.54 0.644,-28.13 4.906,-39.84 5.117,-13.8 12.152,-22.13 20.047,-26.55 4.051,-2.09 8.098,-3.13 12.574,-3.13 4.27,-0.26 8.961,0.52 13.442,2.09 22.171,7.54 22.808,26.81 24.093,35.14 h 30.563"
       style="fill:#3db94d;fill-opacity:1;fill-rule:nonzero;stroke:none"
       transform="matrix(0.13333333,0,0,-0.13333333,0,405.84)" />
    <path
       id="path3"
       d="m 518.785,2815.94 v -32.5 H 438.191 V 2740 h 74.411 v -32.5 h -74.411 v -48.75 h 84.215 v -32.5 h -116.09 v 189.69 h 112.469"
       style="fill:#3db94d;fill-opacity:1;fill-rule:nonzero;stroke:none"
       transform="matrix(0.13333333,0,0,-0.13333333,0,405.84)" />
    <path
       id="path4"
       d="m 731.016,2783.44 h 43.371 c 14.312,0 19.441,-7.81 19.441,-21.33 1.914,-18.73 -11.539,-28.36 -19.015,-28.36 h -43.797 z m -31.875,-157.19 h 31.875 v 75 h 37.632 c 11.118,0 18.817,-6.27 19.243,-19.05 -0.426,-13.84 -0.426,-28.98 0,-38.37 0.429,-6.27 1.699,-11.98 4.25,-17.58 h 34.222 v 6.88 c -3.414,2.6 -5.972,4.96 -5.972,15.66 -0.211,9.65 -0.633,34.71 -1.485,42.54 -1.699,17.2 -11.894,21.88 -17.207,26.3 10.422,7.54 17.227,13.52 21.055,29.91 3.832,16.39 0.637,29.91 -1.488,38.24 -4.469,20.54 -20.207,29.38 -35.766,30.16 h -86.359 v -189.69"
       style="fill:#3db94d;fill-opacity:1;fill-rule:nonzero;stroke:none"
       transform="matrix(0.13333333,0,0,-0.13333333,0,405.84)" />
    <path
       id="path5"
       d="m 1113.48,2815.94 v -32.5 h -45.41 v -157.19 h -31.88 v 157.19 h -47.12 v 32.5 h 124.41"
       style="fill:#3db94d;fill-opacity:1;fill-rule:nonzero;stroke:none"
       transform="matrix(0.13333333,0,0,-0.13333333,0,405.84)" />
    <path
       id="path6"
       d="m 1312.07,2626.25 h -31.87 v 189.69 h 31.87 v -189.69"
       style="fill:#3db94d;fill-opacity:1;fill-rule:nonzero;stroke:none"
       transform="matrix(0.13333333,0,0,-0.13333333,0,405.84)" />
    <path
       id="path7"
       d="m 1601.33,2815.94 v -32.5 h -77.18 V 2740 h 68.02 v -32.5 h -68.02 v -81.25 h -31.88 v 189.69 h 109.06"
       style="fill:#3db94d;fill-opacity:1;fill-rule:nonzero;stroke:none"
       transform="matrix(0.13333333,0,0,-0.13333333,0,405.84)" />
    <path
       id="path8"
       d="m 1802.23,2626.25 h -31.88 v 189.69 h 31.88 v -189.69"
       style="fill:#3db94d;fill-opacity:1;fill-rule:nonzero;stroke:none"
       transform="matrix(0.13333333,0,0,-0.13333333,0,405.84)" />
    <path
       id="path9"
       d="m 2047.38,2869.63 h 26.66 l -27.1,-39 h -14.71 z m 48.46,-53.69 v -32.5 h -80.59 V 2740 h 74.4 v -32.5 h -74.4 v -48.75 h 84.2 v -32.5 h -116.08 v 189.69 h 112.47"
       style="fill:#3db94d;fill-opacity:1;fill-rule:nonzero;stroke:none"
       transform="matrix(0.13333333,0,0,-0.13333333,0,405.84)" />
    <path
       id="path10"
       d="M 61.25,2958.75 H 2120"
       style="fill:none;stroke:#3db94d;stroke-width:52.5;stroke-linecap:butt;stroke-linejoin:miter;stroke-miterlimit:4;stroke-dasharray:none;stroke-opacity:1"
       transform="matrix(0.13333333,0,0,-0.13333333,0,405.84)" />
    <path
       id="path11"
       d="M 59.375,83.9648 H 2127.5"
       style="fill:none;stroke:#3db94d;stroke-width:42.5;stroke-linecap:butt;stroke-linejoin:miter;stroke-miterlimit:4;stroke-dasharray:none;stroke-opacity:1"
       transform="matrix(0.13333333,0,0,-0.13333333,0,405.84)" />
    <path
       id="path12"
       d="m 142.551,600.605 25.226,-72.375 h -48.636 z m 22.367,44.5 H 119.922 L 53.8516,459.188 h 39.7968 l 13.2656,37.167 h 70.231 l 13,-37.167 h 39.796 l -65.023,185.917"
       style="fill:#3db94d;fill-opacity:1;fill-rule:nonzero;stroke:none"
       transform="matrix(0.13333333,0,0,-0.13333333,0,405.84)" />
    <path
       id="path13"
       d="m 366.012,558.855 h 75.945 v -100.32 h -23.406 l -4.684,23.406 c -9.101,-11.238 -24.965,-30.41 -62.406,-28.378 -34.32,1.796 -46.285,15.597 -55.133,23.792 -43.988,42.04 -38.004,137.02 25.75,164.254 7.805,3.313 19.762,6.621 36.145,6.621 17.937,0 42.902,-1.785 62.148,-20.371 21.586,-21.129 20.805,-37.671 21.586,-41.754 h -35.633 c -6.758,22.157 -26.004,30.555 -46.281,30.555 -13,0 -22.363,-3.308 -33.281,-10.43 -23.926,-19.621 -25.231,-66.972 -14.824,-88.105 7.542,-15.281 21.582,-31.062 43.421,-33.359 13.266,-1.282 31.985,3.3 43.164,17.05 10.403,11.973 10.403,20.633 10.661,25.469 H 366.02 l -0.008,31.57"
       style="fill:#3db94d;fill-opacity:1;fill-rule:nonzero;stroke:none"
       transform="matrix(0.13333333,0,0,-0.13333333,0,405.84)" />
    <path
       id="path14"
       d="m 541.426,613.23 h 52.676 c 17.386,0 23.617,-7.664 23.617,-20.925 2.34,-18.379 -14.012,-27.825 -23.094,-27.825 H 541.426 Z M 502.41,459.16 h 39.016 v 73.445 h 45.707 c 13.508,0 22.855,-6.121 23.375,-18.621 -0.52,-13.515 -0.52,-28.3 0,-37.48 0.523,-6.133 2.074,-11.731 5.191,-17.344 h 41.781 v 6.875 c -4.16,2.559 -7.285,4.856 -7.285,15.313 -0.257,9.433 -0.777,33.918 -1.816,41.562 -2.07,16.836 -14.524,21.426 -21.012,25.762 12.723,7.391 21.047,13.262 25.731,29.336 4.675,16.074 0.773,29.347 -1.825,37.512 -5.46,20.144 -24.71,28.828 -43.675,29.585 H 502.41 V 459.16"
       style="fill:#3db94d;fill-opacity:1;fill-rule:nonzero;stroke:none"
       transform="matrix(0.13333333,0,0,-0.13333333,0,405.84)" />
    <path
       id="path15"
       d="m 746.637,459.188 h -39.016 v 185.878 h 39.016 V 459.188"
       style="fill:#3db94d;fill-opacity:1;fill-rule:nonzero;stroke:none"
       transform="matrix(0.13333333,0,0,-0.13333333,0,405.84)" />
    <path
       id="path16"
       d="m 963.891,522.793 c -0.262,-18.855 -11.18,-40.254 -25.489,-51.191 -11.179,-8.653 -32.519,-17.293 -55.937,-18.067 -42.149,-1.269 -71.602,25.188 -81.766,64.414 -2.09,8.672 -3.652,20.391 -3.652,32.625 0,12.492 1.305,25.239 4.433,35.676 10.688,34.668 33.368,61.941 82.547,61.941 13.532,0 32.528,-1.519 50.996,-14.519 27.305,-18.113 28.606,-42.07 28.868,-51.504 h -37.188 c -1.043,10.449 -9.89,36.711 -47.879,33.895 -17.691,-1.266 -31.484,-13.758 -37.73,-29.547 -2.598,-6.633 -5.199,-18.871 -5.981,-32.121 -0.523,-13.25 0.782,-27.52 5.981,-38.997 6.246,-13.503 14.836,-21.648 24.465,-25.984 4.941,-2.039 9.879,-3.059 15.347,-3.059 5.203,-0.25 10.93,0.508 16.395,2.043 27.058,7.383 27.84,26.25 29.402,34.395 h 37.188"
       style="fill:#3db94d;fill-opacity:1;fill-rule:nonzero;stroke:none"
       transform="matrix(0.13333333,0,0,-0.13333333,0,405.84)" />
    <path
       id="path17"
       d="M 1165.64,645.066 V 516.953 c 0,-16.289 -4.16,-40.73 -35.64,-55.762 -11.69,-5.097 -25.46,-7.656 -38.71,-7.656 -13.25,0 -26.25,2.305 -36.64,6.121 -31.47,17.074 -39.27,38.977 -39.27,57.297 v 128.113 h 39.01 V 516.445 c 0.52,-11.711 4.16,-29.785 35.86,-29.785 30.92,0 36.38,18.074 36.38,29.785 v 128.621 h 39.01"
       style="fill:#3db94d;fill-opacity:1;fill-rule:nonzero;stroke:none"
       transform="matrix(0.13333333,0,0,-0.13333333,0,405.84)" />
    <path
       id="path18"
       d="M 1265.55,645.066 V 491.035 h 90.77 V 459.16 h -129.8 v 185.906 h 39.03"
       style="fill:#3db94d;fill-opacity:1;fill-rule:nonzero;stroke:none"
       transform="matrix(0.13333333,0,0,-0.13333333,0,405.84)" />
    <path
       id="path19"
       d="M 1523.05,645.105 V 613.23 h -55.41 V 459.188 h -39.01 V 613.23 h -57.49 v 31.875 h 151.91"
       style="fill:#3db94d;fill-opacity:1;fill-rule:nonzero;stroke:none"
       transform="matrix(0.13333333,0,0,-0.13333333,0,405.84)" />
    <path
       id="path20"
       d="M 1718.36,645.066 V 516.953 c 0,-16.289 -4.16,-40.73 -35.63,-55.762 -11.71,-5.097 -25.47,-7.656 -38.71,-7.656 -13.26,0 -26.25,2.305 -36.64,6.121 -31.48,17.074 -39.28,38.977 -39.28,57.297 v 128.113 h 39.01 V 516.445 c 0.53,-11.711 4.16,-29.785 35.86,-29.785 30.92,0 36.38,18.074 36.38,29.785 v 128.621 h 39.01"
       style="fill:#3db94d;fill-opacity:1;fill-rule:nonzero;stroke:none"
       transform="matrix(0.13333333,0,0,-0.13333333,0,405.84)" />
    <path
       id="path21"
       d="m 1818.26,613.23 h 52.68 c 17.38,0 23.62,-7.664 23.62,-20.925 2.33,-18.379 -14.01,-27.825 -23.1,-27.825 h -53.2 z m -39.02,-154.07 h 39.02 v 73.445 h 45.72 c 13.5,0 22.84,-6.121 23.36,-18.621 -0.52,-13.515 -0.52,-28.3 0,-37.48 0.52,-6.133 2.07,-11.731 5.19,-17.344 h 41.79 v 6.875 c -4.16,2.559 -7.29,4.856 -7.29,15.313 -0.26,9.433 -0.78,33.918 -1.82,41.562 -2.07,16.836 -14.52,21.426 -21.01,25.762 12.73,7.391 21.05,13.262 25.73,29.336 4.68,16.074 0.77,29.347 -1.82,37.512 -5.47,20.144 -24.71,28.828 -43.68,29.585 H 1779.24 V 459.16"
       style="fill:#3db94d;fill-opacity:1;fill-rule:nonzero;stroke:none"
       transform="matrix(0.13333333,0,0,-0.13333333,0,405.84)" />
    <path
       id="path22"
       d="M 2126.17,645.105 V 613.23 h -98.32 v -42.5 h 90.78 v -31.875 h -90.78 v -47.82 h 102.74 V 459.16 h -141.76 v 185.945 h 137.34"
       style="fill:#3db94d;fill-opacity:1;fill-rule:nonzero;stroke:none"
       transform="matrix(0.13333333,0,0,-0.13333333,0,405.84)" />
    <path
       id="path23"
       d="m 117.789,304.98 h 46.399 c 13.562,0 24.25,-5.125 24.25,-21.25 0,-14.851 -9.649,-21.25 -26.333,-21.25 H 117.789 Z M 78.7695,150.918 h 85.6795 c 11.989,0 33.094,1.777 46.098,12.754 16.902,14.266 19.766,29.551 19.766,39.211 0,22.129 -11.446,38.426 -22.625,46.844 13.773,11.218 17.933,27.089 17.933,38.359 0,7.676 -3.641,48.769 -68.469,48.769 H 78.7695 Z m 39.0195,79.687 h 53.172 c 7.301,0 22.164,-1.015 22.164,-21.875 0,-25.429 -17.73,-25.937 -29.457,-25.937 h -45.879 v 47.812"
       style="fill:#3db94d;fill-opacity:1;fill-rule:nonzero;stroke:none"
       transform="matrix(0.13333333,0,0,-0.13333333,0,405.84)" />
    <path
       id="path24"
       d="M 348.176,150.945 H 309.16 v 185.879 h 39.016 V 150.945"
       style="fill:#3db94d;fill-opacity:1;fill-rule:nonzero;stroke:none"
       transform="matrix(0.13333333,0,0,-0.13333333,0,405.84)" />
    <path
       id="path25"
       d="m 514.531,178.711 c -12.5,0 -25,3.562 -34.89,12.48 -12.5,11.204 -18.75,31.329 -19.016,51.446 0.266,20.117 6.516,40.234 19.016,51.445 9.89,8.906 22.39,12.481 34.89,12.481 12.5,0 25,-3.575 34.895,-12.481 12.5,-11.211 18.75,-31.328 19.012,-51.445 -0.262,-20.117 -6.512,-40.242 -19.012,-51.446 -9.895,-8.918 -22.395,-12.48 -34.895,-12.48 z m 91.364,63.926 c 0,28.008 -10.407,56.015 -28.09,74.121 -15.879,16.062 -39.055,23.203 -63.274,23.203 -24.218,0 -47.39,-7.141 -63.277,-23.203 -17.703,-18.106 -28.117,-46.113 -28.117,-74.121 0,-28.016 10.414,-56.035 28.117,-74.121 15.887,-16.075 39.059,-23.203 63.277,-23.203 24.219,0 47.395,7.128 63.274,23.203 17.683,18.086 28.09,46.105 28.09,74.121"
       style="fill:#3db94d;fill-opacity:1;fill-rule:nonzero;stroke:none"
       transform="matrix(0.13333333,0,0,-0.13333333,0,405.84)" />
    <path
       id="path26"
       d="M 722.727,336.824 V 182.793 H 813.5 V 150.918 H 683.711 v 185.906 h 39.016"
       style="fill:#3db94d;fill-opacity:1;fill-rule:nonzero;stroke:none"
       transform="matrix(0.13333333,0,0,-0.13333333,0,405.84)" />
    <path
       id="path27"
       d="m 971.008,178.711 c -12.5,0 -25,3.562 -34.895,12.48 -12.5,11.204 -18.75,31.329 -19.011,51.446 0.261,20.117 6.511,40.234 19.011,51.445 9.895,8.906 22.395,12.481 34.895,12.481 12.5,0 25,-3.575 34.892,-12.481 12.5,-11.211 18.75,-31.328 19.01,-51.445 -0.26,-20.117 -6.51,-40.242 -19.01,-51.446 -9.892,-8.918 -22.392,-12.48 -34.892,-12.48 z m 91.362,63.926 c 0,28.008 -10.41,56.015 -28.09,74.121 -15.88,16.062 -39.053,23.203 -63.272,23.203 -24.219,0 -47.395,-7.141 -63.278,-23.203 -17.707,-18.106 -28.121,-46.113 -28.121,-74.121 0,-28.016 10.414,-56.035 28.121,-74.121 15.883,-16.075 39.059,-23.203 63.278,-23.203 24.219,0 47.392,7.128 63.272,23.203 17.68,18.086 28.09,46.105 28.09,74.121"
       style="fill:#3db94d;fill-opacity:1;fill-rule:nonzero;stroke:none"
       transform="matrix(0.13333333,0,0,-0.13333333,0,405.84)" />
    <path
       id="path28"
       d="m 1228.25,250.605 h 75.95 V 150.293 h -23.41 l -4.68,23.406 c -9.1,-11.25 -24.97,-30.418 -62.4,-28.379 -34.32,1.789 -46.29,15.598 -55.15,23.782 -43.97,42.043 -37.99,137.023 25.76,164.257 7.81,3.313 19.76,6.621 36.15,6.621 17.94,0 42.9,-1.789 62.14,-20.371 21.59,-21.132 20.81,-37.675 21.59,-41.757 h -35.64 c -6.75,22.16 -25.99,30.566 -46.27,30.566 -13,0 -22.36,-3.313 -33.29,-10.438 -23.92,-19.621 -25.22,-66.972 -14.81,-88.117 7.54,-15.273 21.58,-31.054 43.42,-33.347 13.26,-1.282 31.98,3.308 43.16,17.058 10.4,11.973 10.4,20.625 10.67,25.469 h -43.17 l -0.02,31.562"
       style="fill:#3db94d;fill-opacity:1;fill-rule:nonzero;stroke:none"
       transform="matrix(0.13333333,0,0,-0.13333333,0,405.84)" />
    <path
       id="path29"
       d="m 1424.47,150.945 h -39.02 v 185.879 h 39.02 V 150.945"
       style="fill:#3db94d;fill-opacity:1;fill-rule:nonzero;stroke:none"
       transform="matrix(0.13333333,0,0,-0.13333333,0,405.84)" />
    <path
       id="path30"
       d="m 1613.41,183.301 c -6.76,-3.321 -14.29,-4.59 -21.83,-4.59 -12.47,0 -24.93,3.562 -34.8,12.48 -12.47,11.204 -18.71,31.329 -18.97,51.446 0.26,20.117 6.5,40.234 18.97,51.445 9.87,8.906 22.33,12.481 34.8,12.481 12.47,0 24.94,-3.575 34.81,-12.481 12.47,-11.211 18.71,-31.328 18.96,-51.445 -0.25,-14.524 -3.37,-29.032 -10.12,-40.242 l -21.3,19.871 -20,-20.887 z m 48.86,-6.113 c 13,17.57 20.54,41.503 20.54,65.449 0,28.008 -10.41,56.015 -28.08,74.121 -15.87,16.062 -38.99,23.203 -63.15,23.203 -24.15,0 -47.27,-7.141 -63.12,-23.203 -17.7,-18.106 -28.1,-46.113 -28.1,-74.121 0,-28.016 10.4,-56.035 28.1,-74.121 15.85,-16.075 38.97,-23.203 63.12,-23.203 17.67,0 34.81,3.82 49.36,12.492 l 21.84,-20.403 20.03,20.657 -20.54,19.129"
       style="fill:#3db94d;fill-opacity:1;fill-rule:nonzero;stroke:none"
       transform="matrix(0.13333333,0,0,-0.13333333,0,405.84)" />
    <path
       id="path31"
       d="M 1909.02,336.824 V 208.711 c 0,-16.289 -4.16,-40.742 -35.63,-55.773 -11.7,-5.106 -25.48,-7.645 -38.72,-7.645 -13.25,0 -26.25,2.285 -36.64,6.113 -31.47,17.071 -39.28,38.977 -39.28,57.305 v 128.113 h 39.02 V 208.191 c 0.52,-11.707 4.16,-29.773 35.86,-29.773 30.92,0 36.37,18.066 36.37,29.773 v 128.633 h 39.02"
       style="fill:#3db94d;fill-opacity:1;fill-rule:nonzero;stroke:none"
       transform="matrix(0.13333333,0,0,-0.13333333,0,405.84)" />
    <path
       id="path32"
       d="M 2132.41,336.855 V 304.98 h -98.31 v -42.5 h 90.76 v -31.875 h -90.76 v -47.812 h 102.74 v -31.875 h -141.76 v 185.937 h 137.33"
       style="fill:#3db94d;fill-opacity:1;fill-rule:nonzero;stroke:none"
       transform="matrix(0.13333333,0,0,-0.13333333,0,405.84)" />
    <path
       id="path33"
       d="M 2125,735 V 2582.5 H 58.75 V 735 H 2125"
       style="fill:#3db94d;fill-opacity:1;fill-rule:nonzero;stroke:none"
       transform="matrix(0.13333333,0,0,-0.13333333,0,405.84)" />
    <path
       id="path34"
       d="m 1282.06,1865.41 h 38.47 c 130.21,0 236.76,-27.55 236.76,-189.78 0,-165.29 -108.02,-192.84 -239.72,-192.84 h -35.51 z m 0,-497.36 h 85.82 c 124.6,0 284.64,-33.74 284.64,-196.24 0,-164.04 -134.84,-203.9 -263.77,-203.9 H 1282.06 Z M 1142.52,840.41 h 261.04 c 197.09,0 388.5,91.074 388.5,322.2 0,134.91 -92.04,268.16 -224,292.64 v 3.06 c 74.91,36.73 119.23,134.67 119.23,218.85 0,259.59 -198.07,315.75 -408.21,315.75 H 1142.52 V 840.41"
       style="fill:#ffffff;fill-opacity:1;fill-rule:nonzero;stroke:none"
       transform="matrix(0.13333333,0,0,-0.13333333,0,405.84)" />
    <path
       id="path35"
       d="m 1000.04,1959.21 c -16.079,16.17 -44.86,35.29 -90.61,34.53 -126.145,-2.08 -306.496,-179.9 -429.285,-355.19 -101.122,-144.38 -270.77,-439.86 -270.77,-796.675 h 145 c 0,95.129 13.242,186.595 35.629,272.985 H 893.125 V 839.375 h 145.005 c 0,0 0.06,988.225 0.13,991.315 0.67,30.82 1.91,88.18 -38.22,128.52 z M 435.5,1254.86 c 127.641,326.1 369.844,554.84 457.934,589.32 -0.012,-3.92 -0.309,-589.32 -0.309,-589.32 H 435.5"
       style="fill:#ffffff;fill-opacity:1;fill-rule:nonzero;stroke:none"
       transform="matrix(0.13333333,0,0,-0.13333333,0,405.84)" />
    <path
       id="path36"
       d="m 1558.13,2056.25 c 39.58,202.5 -80.42,390 -212.92,442.5 -101.67,-153.34 -30.83,-503.75 286.67,-503.75 186.25,0 308.75,165 313.75,222.5 -187.09,42.91 -371.25,-115.41 -387.5,-161.25"
       style="fill:#ffffff;fill-opacity:1;fill-rule:nonzero;stroke:none"
       transform="matrix(0.13333333,0,0,-0.13333333,0,405.84)" />
  </g>
</svg>
